<mxfile host="app.diagrams.net" modified="2022-05-14T05:47:05.334Z" agent="5.0 (Macintosh; Intel Mac OS X 10_15_7) AppleWebKit/537.36 (KHTML, like Gecko) Chrome/101.0.4951.54 Safari/537.36 Edg/101.0.1210.39" etag="JpNrYyktnn0x9w7DDKrY" version="18.0.3" type="github">
  <diagram id="1nwWrddPEetbQ3bk_A5x" name="Page-1">
    <mxGraphModel dx="970" dy="720" grid="1" gridSize="10" guides="1" tooltips="1" connect="1" arrows="1" fold="1" page="1" pageScale="1" pageWidth="827" pageHeight="1169" math="0" shadow="0">
      <root>
        <mxCell id="0" />
        <mxCell id="1" parent="0" />
        <mxCell id="BjyJn8_2wxoFe--XRQNZ-11" value="" style="rounded=0;whiteSpace=wrap;html=1;fillColor=none;" parent="1" vertex="1">
          <mxGeometry x="60" y="20" width="640" height="390" as="geometry" />
        </mxCell>
        <mxCell id="BjyJn8_2wxoFe--XRQNZ-9" style="edgeStyle=orthogonalEdgeStyle;rounded=0;orthogonalLoop=1;jettySize=auto;html=1;" parent="1" source="BjyJn8_2wxoFe--XRQNZ-1" target="BjyJn8_2wxoFe--XRQNZ-7" edge="1">
          <mxGeometry relative="1" as="geometry" />
        </mxCell>
        <mxCell id="BjyJn8_2wxoFe--XRQNZ-1" value="请求用的api" style="rounded=1;whiteSpace=wrap;html=1;" parent="1" vertex="1">
          <mxGeometry x="80" y="40" width="120" height="60" as="geometry" />
        </mxCell>
        <mxCell id="BjyJn8_2wxoFe--XRQNZ-4" value="" style="edgeStyle=orthogonalEdgeStyle;rounded=0;orthogonalLoop=1;jettySize=auto;html=1;" parent="1" source="BjyJn8_2wxoFe--XRQNZ-2" target="BjyJn8_2wxoFe--XRQNZ-3" edge="1">
          <mxGeometry relative="1" as="geometry" />
        </mxCell>
        <mxCell id="BjyJn8_2wxoFe--XRQNZ-2" value="定时拉取新对局" style="rounded=1;whiteSpace=wrap;html=1;" parent="1" vertex="1">
          <mxGeometry x="560" y="40" width="120" height="60" as="geometry" />
        </mxCell>
        <mxCell id="BjyJn8_2wxoFe--XRQNZ-6" value="" style="edgeStyle=orthogonalEdgeStyle;rounded=0;orthogonalLoop=1;jettySize=auto;html=1;" parent="1" source="BjyJn8_2wxoFe--XRQNZ-3" target="BjyJn8_2wxoFe--XRQNZ-5" edge="1">
          <mxGeometry relative="1" as="geometry" />
        </mxCell>
        <mxCell id="BjyJn8_2wxoFe--XRQNZ-3" value="解析" style="whiteSpace=wrap;html=1;rounded=1;" parent="1" vertex="1">
          <mxGeometry x="560" y="180" width="120" height="60" as="geometry" />
        </mxCell>
        <mxCell id="BjyJn8_2wxoFe--XRQNZ-8" style="edgeStyle=orthogonalEdgeStyle;rounded=0;orthogonalLoop=1;jettySize=auto;html=1;" parent="1" source="BjyJn8_2wxoFe--XRQNZ-5" target="BjyJn8_2wxoFe--XRQNZ-1" edge="1">
          <mxGeometry relative="1" as="geometry" />
        </mxCell>
        <mxCell id="BjyJn8_2wxoFe--XRQNZ-5" value="存入数据库" style="whiteSpace=wrap;html=1;rounded=1;" parent="1" vertex="1">
          <mxGeometry x="560" y="320" width="120" height="60" as="geometry" />
        </mxCell>
        <mxCell id="BjyJn8_2wxoFe--XRQNZ-7" value="nginx" style="rounded=1;whiteSpace=wrap;html=1;" parent="1" vertex="1">
          <mxGeometry x="320" y="40" width="120" height="60" as="geometry" />
        </mxCell>
        <mxCell id="ShCy11qsNCk3m5xnFx3o-2" value="" style="rounded=0;whiteSpace=wrap;html=1;fillColor=none;" parent="1" vertex="1">
          <mxGeometry x="60" y="460" width="200" height="580" as="geometry" />
        </mxCell>
        <mxCell id="BjyJn8_2wxoFe--XRQNZ-12" value="aspdotnet" style="text;html=1;align=center;verticalAlign=middle;resizable=0;points=[];autosize=1;strokeColor=none;fillColor=none;" parent="1" vertex="1">
          <mxGeometry x="65" y="370" width="70" height="20" as="geometry" />
        </mxCell>
        <mxCell id="ShCy11qsNCk3m5xnFx3o-3" value="docker" style="text;html=1;strokeColor=none;fillColor=none;align=center;verticalAlign=middle;whiteSpace=wrap;rounded=0;" parent="1" vertex="1">
          <mxGeometry x="80" y="1000" width="60" height="30" as="geometry" />
        </mxCell>
        <mxCell id="ShCy11qsNCk3m5xnFx3o-4" value="nginx" style="rounded=1;whiteSpace=wrap;html=1;fillColor=none;" parent="1" vertex="1">
          <mxGeometry x="80" y="480" width="120" height="60" as="geometry" />
        </mxCell>
        <mxCell id="ShCy11qsNCk3m5xnFx3o-5" value="pg" style="rounded=1;whiteSpace=wrap;html=1;fillColor=none;" parent="1" vertex="1">
          <mxGeometry x="80" y="600" width="120" height="60" as="geometry" />
        </mxCell>
        <mxCell id="ShCy11qsNCk3m5xnFx3o-6" value="aspdotnet" style="rounded=1;whiteSpace=wrap;html=1;fillColor=none;" parent="1" vertex="1">
          <mxGeometry x="80" y="720" width="120" height="60" as="geometry" />
        </mxCell>
        <mxCell id="ShCy11qsNCk3m5xnFx3o-8" style="edgeStyle=orthogonalEdgeStyle;rounded=0;orthogonalLoop=1;jettySize=auto;html=1;entryX=1.008;entryY=0.485;entryDx=0;entryDy=0;entryPerimeter=0;" parent="1" source="ShCy11qsNCk3m5xnFx3o-7" target="ShCy11qsNCk3m5xnFx3o-2" edge="1">
          <mxGeometry relative="1" as="geometry" />
        </mxCell>
        <mxCell id="ShCy11qsNCk3m5xnFx3o-7" value="frontend(github pages)" style="rounded=1;whiteSpace=wrap;html=1;fillColor=none;" parent="1" vertex="1">
          <mxGeometry x="440" y="711" width="120" height="60" as="geometry" />
        </mxCell>
        <mxCell id="ShCy11qsNCk3m5xnFx3o-10" style="edgeStyle=orthogonalEdgeStyle;rounded=0;orthogonalLoop=1;jettySize=auto;html=1;entryX=0.993;entryY=0.485;entryDx=0;entryDy=0;entryPerimeter=0;" parent="1" source="ShCy11qsNCk3m5xnFx3o-9" target="ShCy11qsNCk3m5xnFx3o-2" edge="1">
          <mxGeometry relative="1" as="geometry" />
        </mxCell>
        <mxCell id="ShCy11qsNCk3m5xnFx3o-9" value="微信小程序" style="rounded=1;whiteSpace=wrap;html=1;fillColor=none;" parent="1" vertex="1">
          <mxGeometry x="440" y="840" width="120" height="60" as="geometry" />
        </mxCell>
      </root>
    </mxGraphModel>
  </diagram>
</mxfile>
